# xmcd
#
# Track frame offsets:
#	150
#	13551
#	33014
#	50425
#	68855
#	84701
#	115807
#	130546
#	150865
#
# Disc length: 2309 seconds
#
# Revision: 1
# Processed by: cddbd v1.5.2PL0 Copyright (c) Steve Scherf et al.
# Submitted via: audiograbber 1.83.01
#
DISCID=5f090309
DTITLE=Black Music Experience - Black Music Experience
DYEAR=2010
DGENRE=R&B
TTITLE0=Workin' day and night
TTITLE1=Hallelujah I love her so
TTITLE2=I wish
TTITLE3=Addicted to love
TTITLE4=Since I lost my baby and You are so beautiful
TTITLE5=Hard to handle
TTITLE6=Soul with a capital "S"
TTITLE7=Jumpin' Jack Flash
TTITLE8=Everybody needs somebody to love
EXTD=
EXTT0=
EXTT1=
EXTT2=
EXTT3=
EXTT4=
EXTT5=
EXTT6=
EXTT7=
EXTT8=
PLAYORDER=
